<svg width="19" height="21" viewBox="0 0 19 21" fill="none" xmlns="http://www.w3.org/2000/svg">
<path d="M17.005 9.5C17.2499 9.50003 17.4863 9.58995 17.6694 9.75271C17.8524 9.91547 17.9693 10.1397 17.998 10.383L18.005 10.5V15C18.0048 16.4203 17.4552 17.7855 16.4713 18.8098C15.4873 19.834 14.1452 20.4379 12.726 20.495L12.505 20.5H5.24999C4.67164 20.5 4.11116 20.2995 3.66406 19.9326C3.21696 19.5658 2.91089 19.0552 2.79799 18.488H5.14499L5.19699 18.497L5.24999 18.5H12.505C13.3979 18.5 14.2571 18.1587 14.9066 17.546C15.5562 16.9332 15.9469 16.0954 15.999 15.204L16.005 15.012V10.5C16.005 10.2348 16.1103 9.98043 16.2979 9.79289C16.4854 9.60535 16.7398 9.5 17.005 9.5ZM13.999 7.487C14.2439 7.48703 14.4803 7.57695 14.6634 7.73971C14.8464 7.90247 14.9633 8.12675 14.992 8.37L14.999 8.487V14.987C14.9991 15.6217 14.7578 16.2327 14.324 16.696C13.8901 17.1594 13.2963 17.4404 12.663 17.482L12.499 17.488H2.49899C1.86427 17.4881 1.25328 17.2468 0.789948 16.813C0.326613 16.3792 0.0456303 15.7853 0.0039928 15.152L-0.00100708 14.988V8.498C-0.000473058 8.2432 0.0973009 7.99822 0.27235 7.81308C0.447399 7.62793 0.68652 7.51659 0.940885 7.50178C1.19525 7.48698 1.44567 7.56983 1.64102 7.73341C1.83637 7.897 1.9619 8.12898 1.99199 8.382L1.99899 8.498V14.988C1.99895 15.105 2.03996 15.2184 2.11488 15.3083C2.1898 15.3982 2.29388 15.4589 2.40899 15.48L2.49899 15.488H12.499C12.616 15.488 12.7294 15.447 12.8193 15.3721C12.9092 15.2972 12.9699 15.1931 12.991 15.078L12.999 14.988V8.487C12.999 8.22178 13.1043 7.96743 13.2919 7.77989C13.4794 7.59235 13.7338 7.487 13.999 7.487V7.487ZM3.29299 3.793L6.78999 0.292997C6.96206 0.120673 7.19109 0.0170581 7.43412 0.00159262C7.67715 -0.0138729 7.91747 0.0598744 8.10999 0.208997L8.20499 0.292997L11.707 3.793C11.8863 3.97296 11.9905 4.21443 11.9982 4.46838C12.006 4.72233 11.9168 4.96971 11.7487 5.16028C11.5807 5.35084 11.3464 5.4703 11.0935 5.4944C10.8406 5.51849 10.588 5.44541 10.387 5.29L10.293 5.207L8.49999 3.415V12.255C8.49996 12.4999 8.41004 12.7363 8.24728 12.9194C8.08452 13.1024 7.86024 13.2193 7.61699 13.248L7.49999 13.255C7.25506 13.255 7.01866 13.165 6.83562 13.0023C6.65259 12.8395 6.53565 12.6152 6.50699 12.372L6.49999 12.255V3.412L4.70699 5.207C4.5348 5.37917 4.3057 5.4826 4.06267 5.49789C3.81965 5.51317 3.5794 5.43925 3.38699 5.29L3.29299 5.207C3.12082 5.0348 3.01738 4.8057 3.0021 4.56268C2.98682 4.31965 3.06074 4.0794 3.20999 3.887L3.29299 3.793L6.78999 0.292997L3.29299 3.793V3.793Z" fill="#777777"/>
</svg>
